# Blender 3.4.1
# www.blender.org
o Cube
v 1.000000 0.117689 -1.840114
v 1.000000 -0.117689 -1.840114
v 1.000000 0.117689 1.840114
v 1.000000 -0.117689 1.840114
v -1.000000 0.117689 -1.840114
v -1.000000 -0.117689 -1.840114
v -1.000000 0.117689 1.840114
v -1.000000 -0.117689 1.840114
v -1.000000 -0.117689 1.472092
v 1.000000 0.117689 1.472092
v -1.000000 0.117689 1.472092
v 1.000000 -0.117689 1.472092
v -1.000000 0.117689 -1.508894
v 1.000000 -0.117689 -1.508894
v -1.000000 -0.117689 -1.508894
v 1.000000 0.117689 -1.508894
v 0.600000 -0.117689 -1.840114
v 0.200000 -0.117689 -1.840114
v -0.200000 -0.117689 -1.840114
v -0.600000 -0.117689 -1.840114
v 0.600000 0.117689 1.840114
v 0.200000 0.117689 1.840114
v -0.200000 0.117689 1.840114
v -0.600000 0.117689 1.840114
v -0.600000 -0.117689 1.840114
v -0.200000 -0.117689 1.840114
v 0.200000 -0.117689 1.840114
v 0.600000 -0.117689 1.840114
v -0.600000 0.117689 -1.840114
v -0.200000 0.117689 -1.840114
v 0.200000 0.117689 -1.840114
v 0.600000 0.117689 -1.840114
v 0.600000 -0.117689 1.472092
v 0.200000 -0.117689 1.472092
v -0.200000 -0.117689 1.472092
v -0.600000 -0.117689 1.472092
v 0.600000 -0.117689 -1.508894
v 0.200000 -0.117689 -1.508894
v -0.200000 -0.117689 -1.508894
v -0.600000 -0.117689 -1.508894
v -1.000000 -1.567238 1.472092
v -1.000000 -1.567238 1.840114
v -0.600000 -1.567238 -1.840114
v -1.000000 -1.567238 -1.840114
v 0.600000 -1.567238 1.840114
v 1.000000 -1.567238 1.840114
v 1.000000 -1.567238 -1.508894
v 1.000000 -1.567238 -1.840114
v 1.000000 -1.567238 1.472092
v -0.600000 -1.567238 1.472092
v -1.000000 -1.567238 -1.508894
v -0.600000 -1.567238 -1.508894
v 0.600000 -1.567238 -1.840114
v -0.600000 -1.567238 1.840114
v 0.600000 -1.567238 1.472092
v 0.600000 -1.567238 -1.508894
vn -0.0000 -0.0000 1.0000
vn -1.0000 -0.0000 -0.0000
vn 1.0000 -0.0000 -0.0000
vn -0.0000 -0.0000 -1.0000
vn -0.0000 -1.0000 -0.0000
vn -0.0000 1.0000 -0.0000
vt 0.625000 0.500000
vt 0.375000 0.500000
vt 0.625000 0.750000
vt 0.375000 0.750000
vt 0.625000 0.250000
vt 0.875000 0.500000
vt 0.375000 0.250000
vt 0.625000 1.000000
vt 0.625000 0.000000
vt 0.875000 0.750000
vt 0.375000 1.000000
vt 0.375000 0.000000
vt 0.125000 0.725000
vt 0.375000 0.025000
vt 0.625000 0.725000
vt 0.625000 0.025000
vt 0.875000 0.725000
vt 0.375000 0.725000
vt 0.625000 0.227500
vt 0.875000 0.522500
vt 0.375000 0.522500
vt 0.125000 0.522500
vt 0.375000 0.227500
vt 0.625000 0.522500
vt 0.325000 0.500000
vt 0.375000 0.450000
vt 0.275000 0.500000
vt 0.375000 0.400000
vt 0.225000 0.500000
vt 0.375000 0.350000
vt 0.175000 0.500000
vt 0.375000 0.300000
vt 0.625000 0.800000
vt 0.675000 0.750000
vt 0.625000 0.850000
vt 0.725000 0.750000
vt 0.625000 0.900000
vt 0.775000 0.750000
vt 0.625000 0.950000
vt 0.825000 0.750000
vt 0.175000 0.750000
vt 0.375000 0.950000
vt 0.225000 0.750000
vt 0.375000 0.900000
vt 0.275000 0.750000
vt 0.375000 0.850000
vt 0.375000 0.800000
vt 0.325000 0.750000
vt 0.625000 0.300000
vt 0.825000 0.500000
vt 0.625000 0.350000
vt 0.775000 0.500000
vt 0.625000 0.400000
vt 0.725000 0.500000
vt 0.625000 0.450000
vt 0.675000 0.500000
vt 0.325000 0.725000
vt 0.275000 0.725000
vt 0.225000 0.725000
vt 0.175000 0.725000
vt 0.325000 0.522500
vt 0.275000 0.522500
vt 0.225000 0.522500
vt 0.175000 0.522500
vt 0.125000 0.725000
vt 0.375000 0.025000
vt 0.125000 0.750000
vt 0.375000 1.000000
vt 0.375000 0.000000
vt 0.175000 0.500000
vt 0.375000 0.300000
vt 0.125000 0.500000
vt 0.375000 0.250000
vt 0.375000 0.800000
vt 0.325000 0.750000
vt 0.375000 0.750000
vt 0.375000 0.522500
vt 0.375000 0.500000
vt 0.375000 0.725000
vt 0.175000 0.725000
vt 0.125000 0.522500
vt 0.375000 0.227500
vt 0.175000 0.522500
vt 0.325000 0.500000
vt 0.375000 0.450000
vt 0.175000 0.750000
vt 0.375000 0.950000
vt 0.325000 0.725000
vt 0.325000 0.522500
s 0
f 25/42/1 24/39/1 7/8/1 8/11/1
f 15/23/2 13/19/2 5/5/2 6/7/2
f 37/61/2 17/25/2 53/84/2 56/89/2
f 12/18/3 10/15/3 3/3/3 4/4/3
f 17/26/4 32/55/4 1/1/4 2/2/4
f 14/21/3 16/24/3 10/15/3 12/18/3
f 37/61/5 14/21/5 12/18/5 33/57/5
f 8/12/2 7/9/2 11/16/2 9/14/2
f 2/2/3 14/21/3 47/77/3 48/78/3
f 2/2/3 1/1/3 16/24/3 14/21/3
f 9/14/2 11/16/2 13/19/2 15/23/2
f 40/64/1 15/22/1 51/81/1 52/83/1
f 20/31/5 19/29/5 39/63/5 40/64/5
f 19/29/5 18/27/5 38/62/5 39/63/5
f 18/27/5 17/25/5 37/61/5 38/62/5
f 40/64/5 39/63/5 38/62/5 37/61/5 33/57/5 34/58/5 35/59/5 36/60/5
f 15/22/5 40/64/5 36/60/5 9/13/5
f 6/7/4 5/5/4 29/49/4 20/32/4
f 20/32/4 29/49/4 30/51/4 19/30/4
f 19/30/4 30/51/4 31/53/4 18/28/4
f 18/28/4 31/53/4 32/55/4 17/26/4
f 9/13/4 36/60/4 50/80/4 41/65/4
f 36/60/5 35/59/5 26/43/5 25/41/5
f 35/59/5 34/58/5 27/45/5 26/43/5
f 34/58/5 33/57/5 28/48/5 27/45/5
f 4/4/1 3/3/1 21/33/1 28/47/1
f 28/47/1 21/33/1 22/35/1 27/46/1
f 27/46/1 22/35/1 23/37/1 26/44/1
f 26/44/1 23/37/1 24/39/1 25/42/1
f 55/88/5 49/79/5 46/76/5 45/75/5
f 53/84/5 48/78/5 47/77/5 56/89/5
f 44/72/5 43/70/5 52/83/5 51/81/5
f 41/65/5 50/80/5 54/86/5 42/67/5
f 14/21/1 37/61/1 56/89/1 47/77/1
f 17/26/4 2/2/4 48/78/4 53/85/4
f 36/60/3 25/41/3 54/86/3 50/80/3
f 25/42/1 8/11/1 42/68/1 54/87/1
f 33/57/4 12/18/4 49/79/4 55/88/4
f 15/23/2 6/7/2 44/73/2 51/82/2
f 8/12/2 9/14/2 41/66/2 42/69/2
f 12/18/3 4/4/3 46/76/3 49/79/3
f 4/4/1 28/47/1 45/74/1 46/76/1
f 20/31/3 40/64/3 52/83/3 43/70/3
f 6/7/4 20/32/4 43/71/4 44/73/4
f 28/48/2 33/57/2 55/88/2 45/75/2
f 11/17/6 7/10/6 24/40/6 23/38/6 22/36/6 21/34/6 3/3/6 10/15/6 16/24/6 1/1/6 32/56/6 31/54/6 30/52/6 29/50/6 5/6/6 13/20/6
